**ABCDEFGHIJKLMNOPQRSTUVWXYZabcdefghijklmnopqrstuvwxyz**************************
**PARASOLID !"#$%&'()*+,-./:;<=>?@[\]^_`{|}~0123456789**************************
**PART1;
MC=AMD64;
MC_MODEL=AMD64 Family 21 Model 2 Stepping 0, AuthenticAMD;
MC_ID=unknown;
OS=Windows_NT;
OS_RELEASE=unknown;
FRU=Parasolid Version 30.0, build 298, 12-15-2017;
APPL=SOLIDWORKS 2018-2018134;
SITE=;
USER=unknown;
FORMAT=text;
GUISE=transmit;
KEY=Head Strap Mount;
FILE=Head Strap Mount.x_t;
DATE=Sun Apr  5 13:10:47 2020;
**PART2;
SCH=SCH_3000298_30000;
USFLD_SIZE=0;
**PART3;
**END_OF_HEADER*****************************************************************
T51 : TRANSMIT FILE created by modeller version 300029823 SCH_3000298_30000_1300
6205 0 12 33 CCCCCCI4 mesh1006 0 I8 polyline1008 0 CCCCCCCDI5 owner1040 0 CCCCCC
I13 boundary_mesh1006 0 I17 boundary_polyline1008 0 CCCA16 index_map_offset0 0 1
 dA9 index_map82 0 A17 node_id_index_map82 0 A20 schema_embedding_map82 0 A5 chi
ld12 0 A14 lowest_node_id0 0 1 dZ1 2933 2 3 0 0 0 0 0 0 1e3 1e-8 0 4 0 1 0 1 1 5
 6 7 8 0 0 9 10 11 0 0 0 0 0 0 81 255 2 2 894 12 1 0 0 0 0 13 0 70 11 CI9 list_t
ype0 0 1 uI10 notransmit0 0 1 lCCCDCCDI12 finger_index0 0 1 dI12 finger_block101
2 0 CZ3 0 4 T1 0 0 3 20 1 14 14 13 255 5 94 0 1 0 15 0 0 16 0 54 255 6 1849 0 17
 18 0 0 +.0085 -.006 5e-4 0 0 1 .00175 5e-4 1 0 0 31 255 7 1853 0 19 20 0 0 +.00
85 -.00425 5e-4 -1 0 0 0 0 1 5e-4 29 255 8 1660 0 11 21 0 .004277945730804685 .0
0758827748208921 5e-4 19 8 CCCCCCCA5 owner12 0 Z9 28 0 1 16 0 22 V0 16 255 10 16
74 0 ?23 0 24 25 0 0 1 18 255 11 1658 0 26 0 27 8 ?1 17 255 26 0 28 29 30 11 31
 24 0 32 +18 27 1649 0 33 11 34 21 ?1 17 33 0 35 36 37 27 38 39 0 40 +18 34 1640
 0 41 27 42 43 ?1 29 21 1651 0 27 43 8 .0085 -.00725 5e-4 29 43 1642 0 34 44 21
 .0085 -.00475 5e-4 29 44 1633 0 42 45 43 -.0085 -.00725 5e-4 18 42 1631 0 23 34
 46 44 ?1 29 45 1630 0 46 47 44 -.0085 -.00475 5e-4 18 46 1628 0 48 42 49 45 ?1
 29 47 1621 0 49 50 45 .01213113948024018 -.00348012286039279 5e-4 18 49 1619 0
 51 46 52 47 ?1 29 50 1612 0 52 53 47 .0125 -.00463744044688399 5e-4 18 52 1610
 0 54 49 55 50 ?1 29 53 1603 0 55 56 50 .0125 -.008 5e-4 18 55 1601 0 57 52 58 5
3 ?1 29 56 1594 0 58 59 53 .0105 -.01 5e-4 18 58 1592 0 60 55 61 56 ?1 29 59 158
5 0 61 62 56 -.0105 -.01 5e-4 18 61 1583 0 63 58 64 59 ?1 29 62 1576 0 64 65 59
 -.0125 -.008 5e-4 18 64 1574 0 66 61 67 62 ?1 29 65 1567 0 67 68 62 -.0125 -.00
463744044688398 5e-4 18 67 1565 0 69 64 70 65 ?1 29 68 1558 0 70 71 65 -.0042779
4573080468 .00758827748208921 5e-4 18 70 1556 0 72 67 73 68 ?1 29 71 1555 0 73 7
4 68 -.01213113948024018 -.003480122860392785 5e-4 18 73 1553 0 75 70 76 71 ?1 2
9 74 1545 0 76 77 71 -.01172335461018014 -.003769452257015585 0 18 76 1543 0 78
 73 79 74 ?1 29 77 1541 0 79 80 74 -.012 -.00463744044688398 0 18 79 1539 0 81 7
6 82 77 ?1 29 80 1537 0 82 83 77 -.012 -.008 0 18 82 1535 0 84 79 85 80 ?1 29 83
 1533 0 85 86 80 -.0105 -.0095 0 18 85 1531 0 87 82 88 83 ?1 29 86 1529 0 88 89
 83 .0105 -.0095 0 18 88 1527 0 90 85 91 86 ?1 29 89 1525 0 91 92 86 .012 -.008
 0 18 91 1523 0 93 88 94 89 ?1 29 92 1521 0 94 95 89 .012 -.00463744044688399 0
 18 94 1519 0 96 91 97 92 ?1 29 95 1517 0 97 98 92 -.00385932078016541 .00731422
624559127 0 18 97 1515 0 99 94 100 95 ?1 29 98 1513 0 100 101 95 .01172335461018
012 -.00376945225701559 0 18 100 1511 0 102 97 103 98 ?1 29 101 1510 0 103 104 9
8 .00385932078016542 .00731422624559128 0 18 103 1508 0 105 100 106 101 ?1 29 10
4 1500 0 106 107 101 -.0085 -.00425 0 18 106 1498 0 108 103 109 104 ?1 29 107 14
96 0 109 110 104 .0085 -.00425 0 18 109 1494 0 111 106 112 107 ?1 29 110 1492 0
 112 113 107 .0085 -.00775 0 18 112 1490 0 114 109 115 110 ?1 29 113 1489 0 115
 116 110 -.0085 -.00775 0 18 115 1487 0 117 112 118 113 ?1 29 116 1198 0 118 119
 113 -.00427794573080468 .00758827748208921 .0025 18 118 1196 0 120 115 121 116
 ?1 29 119 1189 0 121 122 116 .0085 -.00725 .0025 18 121 1187 0 36 118 123 119 ?
1 29 122 1180 0 123 124 119 .0085 -.00475 .0025 18 123 1178 0 125 121 126 122 ?1
 29 124 1171 0 126 127 122 -.0085 -.00475 .0025 18 126 1169 0 128 123 129 124 ?1
 29 127 1168 0 129 130 124 -.0085 -.00725 .0025 18 129 1166 0 131 126 132 127 ?1
 29 130 1159 0 132 133 127 -.01213113948024018 -.003480122860392785 .0025 18 132
 1157 0 134 129 135 130 ?1 29 133 1150 0 135 136 130 -.0125 -.00463744044688398
 .0025 18 135 1148 0 137 132 138 133 ?1 29 136 1141 0 138 139 133 -.0125 -.008 .
0025 18 138 1139 0 140 135 141 136 ?1 29 139 1132 0 141 142 136 -.0105 -.01 .002
5 18 141 1130 0 143 138 144 139 ?1 29 142 1123 0 144 145 139 .0105 -.01 .0025 18
 144 1121 0 146 141 147 142 ?1 29 145 1114 0 147 148 142 .0125 -.008 .0025 18 14
7 1112 0 149 144 150 145 ?1 29 148 1105 0 150 151 145 .0125 -.00463744044688399
 .0025 18 150 1103 0 152 147 153 148 ?1 29 151 1095 0 153 154 148 .0117233546101
8012 -.00376945225701559 .003 18 153 1093 0 155 150 156 151 ?1 29 154 1091 0 156
 157 151 .012 -.00463744044688399 .003 18 156 1089 0 158 153 159 154 ?1 29 157 1
087 0 159 160 154 .012 -.008 .003 18 159 1085 0 161 156 162 157 ?1 29 160 1083 0
 162 163 157 .0105 -.0095 .003 18 162 1081 0 164 159 165 160 ?1 29 163 1079 0 16
5 166 160 -.0105 -.0095 .003 18 165 1077 0 167 162 168 163 ?1 29 166 1075 0 168
 169 163 -.012 -.008 .003 18 168 1073 0 170 165 171 166 ?1 29 169 1071 0 171 172
 166 -.012 -.00463744044688398 .003 18 171 1069 0 173 168 174 169 ?1 29 172 1067
 0 174 175 169 .00385932078016541 .00731422624559128 .003 18 174 1065 0 176 171
 177 172 ?1 29 175 1063 0 177 178 172 -.01172335461018014 -.003769452257015585 .
003 18 177 1061 0 179 174 180 175 ?1 29 178 1060 0 180 181 175 -.003859320780165
425 .00731422624559128 .003 18 180 1058 0 182 177 183 178 ?1 29 181 1050 0 183 1
84 178 -.0085 -.00425 .003 18 183 1048 0 185 180 186 181 ?1 29 184 1046 0 186 18
7 181 .0085 -.00425 .003 18 186 1044 0 188 183 189 184 ?1 29 187 1042 0 189 190
 184 -.0085 -.00775 .003 18 189 1040 0 191 186 192 187 ?1 29 190 1039 0 192 193
 187 .0085 -.00775 .003 18 192 1037 0 194 189 195 190 ?1 29 193 1030 0 195 196 1
90 .004277945730804685 .00758827748208921 .0025 18 195 1028 0 29 192 197 193 ?1
 29 196 1027 0 197 0 193 .01213113948024018 -.00348012286039279 .0025 18 197 102
5 0 198 195 0 196 ?1 17 198 0 199 200 201 197 202 203 0 204 +15 255 199 1264 0 1
76 205 0 17 200 0 199 176 198 195 206 207 0 0 -17 201 0 199 198 176 153 208 209
 0 202 -17 202 0 210 211 204 153 198 203 0 0 -16 203 1296 0 ?198 212 213 214 0 0
 1 17 204 0 210 202 215 197 216 217 0 206 -15 210 1262 0 215 218 0 17 215 0 210
 204 211 150 219 220 0 0 +17 216 0 221 222 223 150 204 217 0 224 +16 217 1106 0
 ?216 225 209 226 0 0 1 17 206 0 28 30 29 197 200 207 0 223 +15 28 537 0 30 227
 0 17 30 0 28 26 206 49 223 228 0 229 +17 29 0 28 206 26 195 32 230 0 231 +16 20
7 1031 0 ?206 232 233 234 0 0 1 17 223 0 221 216 51 197 30 228 0 0 -15 221 825 0
 222 235 0 17 51 0 221 223 222 49 236 237 0 30 +16 228 1026 0 ?30 238 239 240 0
 0 1 16 238 1554 0 ?134 233 228 241 0 0 1 16 239 1611 0 ?152 228 242 243 0 0 1 3
0 255 240 786 0 228 243 241 0 -.01213113948024018 -.00348012286039279 0 0 0 1 30
 243 759 0 239 244 240 0 +.0125 -.00463744044688399 .003 0 0 1 30 241 807 0 238
 240 245 0 +-.01213113948024018 -.003480122860392785 0 0 0 1 30 245 812 0 233 24
1 234 0 --.0125 -.00463744044688398 .003 0 0 1 16 233 1149 0 ?246 207 238 245 0
 0 1 30 234 1033 0 207 245 247 0 +.01213113948024018 -.003480122860392795 .0025
 .578658793245599 -.815569740120088 0 30 247 1043 0 232 234 248 0 --.0085 -.0077
5 .003 1 0 0 16 232 1041 0 ?191 249 207 247 0 0 1 31 248 1047 0 249 247 250 0 -.
0085 -.006 .003 0 0 1 1 0 0 .00175 16 249 1045 0 ?194 251 232 248 0 0 1 30 250 1
051 0 251 248 252 0 -.0085 -.00425 .003 -1 0 0 16 251 1049 0 ?188 253 249 250 0
 0 1 31 252 1054 0 253 250 254 0 --.0085 -.006 .003 0 0 1 1 0 0 .00175 16 253 10
52 0 ?255 256 251 252 0 0 1 30 254 1064 0 256 252 257 0 --.01172335461018014 -.0
0376945225701559 .003 .578658793245599 .815569740120088 0 16 256 1062 0 ?179 258
 253 254 0 0 1 31 257 1068 0 258 254 259 0 +0 .005 .003 0 0 1 1 0 0 .0045 16 258
 1066 0 ?182 260 256 257 0 0 1 31 259 1072 0 260 257 261 0 +-.0105 -.00463744044
688398 .003 0 0 1 1 0 0 .0015 16 260 1070 0 ?173 262 258 259 0 0 1 30 261 1076 0
 262 259 263 0 +-.012 -.008 .003 1734723475976805e-31 -1 0 16 262 1074 0 ?170 26
4 260 261 0 0 1 31 263 1080 0 264 261 265 0 +-.0105 -.008 .003 0 0 1 1 0 0 .0015
 16 264 1078 0 ?167 266 262 263 0 0 1 30 265 1084 0 266 263 267 0 +.0105 -.0095
 .003 1 0 0 16 266 1082 0 ?164 268 264 265 0 0 1 31 267 1088 0 268 265 269 0 +.0
105 -.008 .003 0 0 1 1 0 0 .0015 16 268 1086 0 ?161 270 266 267 0 0 1 30 269 109
2 0 270 267 271 0 +.012 -.00463744044688399 .003 -867361737988404e-31 1 0 16 270
 1090 0 ?158 272 268 269 0 0 1 31 271 1096 0 272 269 273 0 +.0105 -.004637440446
88399 .003 0 0 1 1 0 0 .0015 16 272 1094 0 ?155 209 270 271 0 0 1 30 273 1099 0
 209 271 226 0 -.00387016086074464 .00729894808546641 .003 .578658793245599 -.81
5569740120088 0 16 209 1097 0 ?208 217 272 273 0 0 1 31 226 1108 0 217 273 274 0
 -.0105 -.00463744044688399 .0025 0 0 1 1 0 0 .002 30 274 1117 0 225 226 275 0 -
.0125 -.008 .0025 -867361737988404e-31 1 0 16 225 1115 0 ?149 276 217 274 0 0 1
 31 275 1126 0 276 274 277 0 -.0105 -.008 .0025 0 0 1 1 0 0 .002 16 276 1124 0 ?
278 279 225 275 0 0 1 30 277 1135 0 279 275 280 0 --.0105 -.01 .0025 1 0 0 16 27
9 1133 0 ?143 281 276 277 0 0 1 31 280 1144 0 281 277 282 0 --.0105 -.008 .0025
 0 0 1 1 0 0 .002 16 281 1142 0 ?283 284 279 280 0 0 1 30 282 1153 0 284 280 285
 0 --.0125 -.00463744044688398 .0025 1734723475976805e-31 -1 0 16 284 1151 0 ?13
7 286 281 282 0 0 1 31 285 1162 0 286 282 287 0 --.0105 -.00463744044688398 .002
5 0 0 1 1 0 0 .002 16 286 1160 0 ?288 289 284 285 0 0 1 31 287 1174 0 289 285 29
0 0 +-.0085 -.006 .0025 0 0 1 1 0 0 .00125 16 289 1172 0 ?291 292 286 287 0 0 1
 30 290 1183 0 292 287 293 0 +-.0085 -.00475 .0025 -1 0 0 16 292 1181 0 ?294 295
 289 290 0 0 1 31 293 1192 0 295 290 296 0 +.0085 -.006 .0025 0 0 1 1 0 0 .00125
 16 295 1190 0 ?297 298 292 293 0 0 1 31 296 1201 0 298 293 299 0 -0 .005 .0025
 0 0 1 1 0 0 .005 16 298 1199 0 ?231 300 295 296 0 0 1 30 299 1208 0 300 296 301
 0 +-.00427794573080468 .00758827748208921 .0025 .578658793245599 .8155697401200
88 0 16 300 1206 0 ?302 303 298 299 0 0 1 30 301 1214 0 303 299 214 0 +.0085 -.0
0725 .0025 1 0 0 16 303 1212 0 ?304 305 300 301 0 0 1 31 214 1336 0 203 301 306
 0 +.01172335461018012 -.00376945225701559 .0025 -.578658793245598 .815569740120
089 0 -.815569740120089 -.578658793245598 0 5e-4 38 12 CCCCCCCCCCCA17 intersecti
on_data204 0 Z306 1335 0 212 214 307 0 +308 309 310 311 312 313 16 212 1294 0 ?1
76 220 203 306 0 0 1 31 307 1334 0 220 306 314 0 +.012 -.00463744044688399 .0025
 0 1 0 0 0 1 5e-4 54 308 1326 0 315 316 309 317 +0 .005 .0025 0 0 1 .0045 5e-4 1
 0 0 51 255 309 1325 0 205 308 318 319 +.00601889373593223 .00427049412769435 .0
025 -.578658793245599 .815569740120088 0 5e-4 -.815569740120088 -.57865879324559
9 0 40 255 6 310 0 1 6 281813937116473e-19 .3374006777462265 ??.0042779457308046
8 .00758827748208921 .0025 .00425438676524534 .00757282405709922 .00266541906130
2845 .004186366973692885 .00752822640256844 .00281218789824146 .0040815117752689
55 .00745953604216245 .002923813023187125 .00395154269102492 .00737449615505766
 .00298772983014065 .00387282677583542 .00732304901901075 .002999740063305735 41
 3 CI8 term_use0 0 1 cCZ1 311 L?.00427794573080468 .00758827748208921 .0025 41 2
 312 TF.00385932078016534 .00731422624559143 .003 .00387282677583542 .0073230490
1901075 .002999740063305735 204 2 17 INTERSECTION_DATA17 Intersection data7 uv_t
ype0 0 1 u6 values0 1 1 fT28 313 4 .544108450682187 0 3.141592653589795 .0037132
9857986901 .543902017266839 .3371915727781775 2.804401080811615 .003714327836646
645 .543296109426896 .674332168195898 2.467260485393895 .003717315589627575 .542
332136158631 1.01149503132143 2.130097622268365 .00372196919282802 .541083633505
462 1.348799150399434 1.79279350319036 .00372782098765001 .540296643098169 1.538
549824962485 1.603042828618575 .003731411916767095 .540159161126451 1.5707963267
94855 1.570796326794935 .00373203169289839 14 255 205 1263 320 ?321 218 199 5 30
9 +0 0 321 218 22 54 318 1324 0 218 309 322 0 +.0105 -.00463744044688399 .0025 0
 0 1 .0015 5e-4 1 0 0 141 255 319 306 319 319 309 14 218 1261 323 ?205 315 210 5
 318 +0 0 205 315 22 51 322 1323 0 324 318 325 326 +-.00601889373593223 .0042704
9412769435 .0025 -.578658793245599 -.815569740120088 0 5e-4 .815569740120088 -.5
78658793245599 0 14 324 1255 327 ?328 329 330 5 322 +0 0 328 329 22 51 325 1322
 0 328 322 331 0 +.012 1040834085586084e-33 .0025 867361737988404e-31 -1 0 5e-4
 1 867361737988404e-31 0 141 326 314 326 326 322 38 314 1333 0 332 307 333 0 +32
2 308 334 335 336 337 16 332 1288 0 ?338 339 220 314 0 0 1 31 333 1332 0 339 314
 340 0 +.012 -.008 .0025 0 1 0 0 0 1 5e-4 40 6 334 0 1 6 281813937116468e-19 .33
7400677746226 ??-.00427794573080468 .00758827748208921 .0025 -.00425438676524534
5 .00757282405709921 .002665419061302845 -.00418636697369289 .00752822640256843
 .00281218789824146 -.004081511775268955 .00745953604216245 .002923813023187125
 -.00395154269102493 .00737449615505764 .00298772983014065 -.0038728267758354 .0
0732304901901076 .002999740063305735 41 1 335 L?-.00427794573080468 .00758827748
208921 .0025 41 2 336 TF-.003859320780165335 .00731422624559141 .003 -.003872826
7758354 .00732304901901076 .002999740063305735 204 28 337 4 3.141592653589795 -.
00371329857986901 2.597484202907605 0 2.804401080811615 -.00371432783664663 2.59
7690636322955 .3371915727781775 2.467260485393895 -.00371731558962756 2.59829654
41629 .674332168195898 2.130097622268365 -.00372196919282802 2.59926051743116 1.
011495031321428 1.79279350319036 -.003727820987649995 2.600509020084335 1.348799
150399432 1.603042828618555 -.003731411916767115 2.60129601049162 1.538549824962
515 1.570796326794915 -.003732031692898375 2.601433492463345 1.57079632679488 16
 339 1285 0 ?341 342 332 333 0 0 1 31 340 1331 0 342 333 343 0 +-.01172335461018
012 -.003769452257015585 .0025 .578658793245599 .815569740120088 130023199920579
e-29 -.815569740120088 .578658793245599 0 5e-4 16 342 1282 0 ?344 345 339 340 0
 0 1 31 343 1330 0 345 340 346 0 +.0105 -.0095 .0025 1 0 0 0 0 -1 5e-4 16 345 12
79 0 ?347 348 342 343 0 0 1 31 346 1329 0 348 343 349 0 +-.012 -.004637440446883
98 .0025 0 1 0 0 0 1 5e-4 16 348 1276 0 ?350 351 345 346 0 0 1 31 349 1328 0 351
 346 352 0 +-.0105 -.0095 .0025 1 0 0 0 0 -1 5e-4 16 351 1273 0 ?353 354 348 349
 0 0 1 31 352 1327 0 354 349 355 0 +-.012 -.008 .0025 0 1 0 0 0 1 5e-4 16 354 12
70 0 ?356 357 351 352 0 0 1 31 355 1401 0 358 352 359 0 +-.0085 -.00775 .0025 -1
 0 0 0 0 1 5e-4 16 358 1385 0 ?360 361 362 355 0 0 1 31 359 1400 0 361 355 363 0
 +-.0085 -.00425 .0025 -1 0 0 0 0 1 5e-4 16 361 1383 0 ?185 364 358 359 0 0 1 31
 363 1399 0 364 359 365 0 +.0085 -.00775 .0025 -1 0 0 0 0 1 5e-4 16 364 1380 0 ?
366 213 361 363 0 0 1 31 365 1398 0 213 363 367 0 +.0085 -.00425 .0025 -1 0 0 0
 0 1 5e-4 16 213 1377 0 ?368 203 364 365 0 0 1 30 367 1493 0 305 365 369 0 +0 -.
00775 0 1 0 0 16 305 1491 0 ?114 370 303 367 0 0 1 31 369 1497 0 370 367 371 0 +
.0085 -.006 0 0 0 1 1 0 0 .00175 16 370 1495 0 ?111 372 305 369 0 0 1 30 371 150
1 0 372 369 373 0 +0 -.00425 0 -1 0 0 16 372 1499 0 ?108 374 370 371 0 0 1 31 37
3 1504 0 374 371 375 0 +-.0085 -.006 0 0 0 1 1 0 0 .00175 16 374 1502 0 ?376 377
 372 373 0 0 1 30 375 1514 0 377 373 378 0 +.00601889373593224 .0042704941276943
5 0 .578658793245599 -.815569740120088 0 16 377 1512 0 ?102 379 374 375 0 0 1 31
 378 1518 0 379 375 380 0 -0 .005 0 0 0 1 1 0 0 .0045 16 379 1516 0 ?105 381 377
 378 0 0 1 31 380 1522 0 381 378 382 0 -.0105 -.00463744044688399 0 0 0 1 1 0 0
 .0015 16 381 1520 0 ?96 383 379 380 0 0 1 30 382 1526 0 383 380 384 0 -.012 104
0834085586084e-33 0 -867361737988404e-31 1 0 16 383 1524 0 ?93 385 381 382 0 0 1
 31 384 1530 0 385 382 386 0 -.0105 -.008 0 0 0 1 1 0 0 .0015 16 385 1528 0 ?90
 387 383 384 0 0 1 30 386 1534 0 387 384 388 0 -0 -.0095 0 1 0 0 16 387 1532 0 ?
87 389 385 386 0 0 1 31 388 1538 0 389 386 390 0 --.0105 -.008 0 0 0 1 1 0 0 .00
15 16 389 1536 0 ?84 391 387 388 0 0 1 30 390 1542 0 391 388 392 0 --.012 -20816
6817117217e-32 0 1734723475976805e-31 -1 0 16 391 1540 0 ?81 393 389 390 0 0 1 3
1 392 1546 0 393 390 394 0 --.0105 -.00463744044688398 0 0 0 1 1 0 0 .0015 16 39
3 1544 0 ?78 395 391 392 0 0 1 30 394 1549 0 395 392 396 0 +-.00601889373593223
 .00427049412769435 0 .578658793245599 .815569740120088 0 16 395 1547 0 ?397 398
 393 394 0 0 1 30 396 1561 0 398 394 399 0 --.00642667860599228 .004559823524317
15 5e-4 .578658793245599 .815569740120088 0 16 398 1559 0 ?400 401 395 396 0 0 1
 31 399 1570 0 401 396 402 0 +-.0105 -.00463744044688398 5e-4 0 0 1 1 0 0 .002 1
6 401 1568 0 ?69 403 398 399 0 0 1 30 402 1579 0 403 399 404 0 +-.0125 .01 5e-4
 1734723475976805e-31 -1 0 16 403 1577 0 ?66 405 401 402 0 0 1 31 404 1588 0 405
 402 406 0 +-.0105 -.008 5e-4 0 0 1 1 0 0 .002 16 405 1586 0 ?63 407 403 404 0 0
 1 30 406 1597 0 407 404 408 0 +-.0125 -.01 5e-4 1 0 0 16 407 1595 0 ?60 409 405
 406 0 0 1 31 408 1606 0 409 406 410 0 +.0105 -.008 5e-4 0 0 1 1 0 0 .002 16 409
 1604 0 ?57 411 407 408 0 0 1 30 410 1615 0 411 408 412 0 +.0125 .01 5e-4 -86736
1737988404e-31 1 0 16 411 1613 0 ?54 237 409 410 0 0 1 31 412 1624 0 237 410 413
 0 +.0105 -.00463744044688399 5e-4 0 0 1 1 0 0 .002 16 237 1622 0 ?51 414 411 41
2 0 0 1 31 413 1636 0 414 412 415 0 --.0085 -.006 5e-4 0 0 1 1 0 0 .00125 16 414
 1634 0 ?416 417 237 413 0 0 1 30 415 1645 0 417 413 418 0 --.0085 -.00475 5e-4
 -1 0 0 16 417 1643 0 ?41 39 414 415 0 0 1 31 418 1654 0 39 415 419 0 -.0085 -.0
06 5e-4 0 0 1 1 0 0 .00125 16 39 1652 0 ?33 420 417 418 0 0 1 31 419 1663 0 420
 418 421 0 +0 .005 5e-4 0 0 1 1 0 0 .005 16 420 1661 0 ?72 24 39 419 0 0 1 30 42
1 1670 0 24 419 25 0 -.00642667860599228 .00455982352431715 5e-4 .57865879324559
9 -.815569740120088 0 16 24 1668 0 ?26 10 420 421 0 0 1 30 25 1676 0 10 421 422
 0 --.0085 -.00725 5e-4 1 0 0 38 422 1791 0 423 25 424 0 +425 426 427 428 429 43
0 16 423 1751 0 ?99 431 19 422 0 0 1 31 424 1790 0 431 422 432 0 +-.011723354610
18014 -.003769452257015585 5e-4 .5786587932456 .815569740120087 0 -.815569740120
087 .5786587932456 0 5e-4 54 425 1781 0 433 434 426 435 +0 .005 5e-4 0 0 1 .0045
 5e-4 1 0 0 51 426 1780 0 436 425 437 438 +-.00601889373593223 .0042704941276943
5 5e-4 .578658793245599 .815569740120088 0 5e-4 -.815569740120088 .5786587932455
99 0 40 6 427 0 1 6 2818139371164735e-20 .337400677746226 ??-.00427794573080468
 .00758827748208921 5e-4 -.004254386765245345 .00757282405709921 .00033458093869
71545 -.004186366973692885 .00752822640256844 .000187812101758539 -.004081511775
268965 .00745953604216244 761869768128756e-19 -.003951542691024925 .007374496155
05765 1227016985935284e-20 -.003872826775835405 .00732304901901074 2599366942631
085e-22 41 1 428 L?-.00427794573080468 .00758827748208921 5e-4 41 2 429 TF-.0038
59320780165325 .00731422624559141 -99671699821959e-45 -.003872826775835405 .0073
2304901901074 2599366942631085e-22 204 28 430 4 2.597484202907605 0 0 .003713298
57986901 2.597690636322955 -.3371915727781775 5.94599373440141 .0037143278366466
3 2.5982965441629 -.674332168195897 5.60885313898369 .003717315589627565 2.59926
0517431165 -1.011495031321426 5.27169027585816 .003721969192828005 2.60050902008
433 -1.348799150399432 4.93438615678015 .003727820987650005 2.601296010491625 -1
.538549824962525 4.74463548220833 .003731411916767095 2.601433492463345 -1.57079
6326794895 4.71238898038469 .00373203169289838 14 436 1718 439 ?17 433 440 5 426
 +0 0 17 433 22 51 437 1779 0 441 426 442 443 +.00601889373593224 .0042704941276
9435 5e-4 .578658793245599 -.815569740120088 0 5e-4 .815569740120088 .5786587932
45599 0 141 438 422 438 438 426 14 441 1712 444 ?445 446 447 5 437 +0 0 445 446
 22 54 442 1778 0 445 437 448 0 +-.0105 -.00463744044688398 5e-4 0 0 1 .0015 5e-
4 1 0 0 141 443 432 443 443 437 38 432 1789 0 449 424 450 0 +437 425 451 452 453
 454 16 449 1746 0 ?455 456 431 432 0 0 1 31 450 1788 0 456 432 457 0 +-.012 -.0
0463744044688398 5e-4 0 1 0 0 0 1 5e-4 40 6 451 0 1 6 2818139371164755e-20 .3374
006777462255 ??.00427794573080468 .00758827748208921 5e-4 .004254386765245335 .0
0757282405709923 .0003345809386971545 .00418636697369288 .00752822640256845 .000
1878121017585395 .004081511775268955 .00745953604216245 761869768128755e-19 .003
951542691024915 .00737449615505767 1227016985935284e-20 .003872826775835415 .007
32304901901076 2599366942636925e-22 41 1 452 L?.00427794573080468 .0075882774820
8921 5e-4 41 2 453 TF.003859320780165335 .00731422624559143 1287924397672076e-47
 .003872826775835415 .00732304901901076 2599366942636925e-22 204 28 454 4 0 -.00
371329857986901 .544108450682187 0 5.94599373440141 -.00371432783664665 .5439020
1726684 -.337191572778177 5.60885313898369 -.00371731558962758 .543296109426898
 -.674332168195897 5.27169027585816 -.003721969192828025 .542332136158633 -1.011
495031321428 4.93438615678015 -.003727820987650025 .541083633505465 -1.348799150
399432 4.74463548220837 -.003731411916767105 .540296643098171 -1.53854982496249
 4.71238898038472 -.003732031692898395 .540159161126452 -1.57079632679486 16 456
 1743 0 ?458 459 449 450 0 0 1 31 457 1787 0 459 450 460 0 +.01172335461018012 -
.00376945225701559 5e-4 -.578658793245598 .815569740120089 707393987241311e-30 -
.815569740120089 -.578658793245598 0 5e-4 16 459 1740 0 ?461 462 456 457 0 0 1 3
1 460 1786 0 462 457 463 0 +-.012 -.008 5e-4 0 1 0 0 0 1 5e-4 16 462 1737 0 ?464
 465 459 460 0 0 1 31 463 1785 0 465 460 466 0 +.012 -.00463744044688399 5e-4 0
 1 0 0 0 1 5e-4 16 465 1734 0 ?467 468 462 463 0 0 1 31 466 1784 0 468 463 469 0
 +-.0105 -.0095 5e-4 -1 0 0 0 0 1 5e-4 16 468 1731 0 ?470 471 465 466 0 0 1 31 4
69 1783 0 471 466 472 0 +.012 -.008 5e-4 0 1 0 0 0 1 5e-4 16 471 1728 0 ?473 362
 468 469 0 0 1 31 472 1782 0 362 469 474 0 +.0105 -.0095 5e-4 -1 0 0 0 0 1 5e-4
 16 362 1725 0 ?475 358 471 472 0 0 1 31 474 1856 0 476 472 477 0 +-.0085 -.0077
5 5e-4 -1 0 0 0 0 1 5e-4 16 476 1840 0 ?117 478 0 474 0 0 1 31 477 1855 0 478 47
4 20 0 +-.0085 -.00425 5e-4 -1 0 0 0 0 1 5e-4 16 478 1838 0 ?48 479 476 477 0 0
 1 31 20 1854 0 479 477 7 0 +.0085 -.00775 5e-4 -1 0 0 0 0 1 5e-4 16 479 1835 0
 ?480 19 478 20 0 0 1 17 480 0 481 482 483 112 484 479 0 0 +16 19 1832 0 ?485 42
3 479 7 0 0 1 17 485 0 486 487 488 34 489 19 0 0 +15 486 1822 0 485 490 0 17 487
 0 486 491 485 46 41 417 0 416 -17 488 0 486 485 491 109 108 372 0 0 -17 489 0 4
92 493 38 109 485 19 0 488 -15 492 1820 0 484 17 0 17 493 0 492 484 489 112 111
 370 0 480 -17 38 0 492 489 484 34 33 39 0 485 -17 484 0 492 38 493 27 480 479 0
 483 -17 483 0 481 480 494 27 23 10 0 0 -15 481 1824 0 480 495 0 17 494 0 481 48
3 482 42 117 476 0 0 -17 23 0 496 131 40 42 483 10 0 497 +15 496 694 0 40 498 0
 17 131 0 496 304 23 129 497 357 0 360 +17 40 0 496 23 304 27 36 499 0 484 -17 4
97 0 500 416 291 42 131 357 0 501 -15 500 682 0 497 502 0 17 416 0 500 128 497 4
6 501 414 0 503 +17 291 0 500 497 128 129 504 289 0 0 +16 357 1632 0 ?131 499 35
4 505 0 0 1 17 501 0 506 117 48 42 416 414 0 494 -15 506 1826 0 48 507 0 17 117
 0 506 508 501 115 494 476 0 482 +17 48 0 506 501 508 46 491 478 0 487 +17 508 0
 506 48 117 106 376 374 0 0 -17 491 0 486 488 487 106 48 478 0 508 -17 376 0 509
 114 108 115 508 374 0 0 +15 509 1488 0 108 510 511 17 114 0 509 111 376 112 482
 305 0 493 +17 108 0 509 376 111 106 488 372 0 491 +17 111 0 509 108 114 109 493
 370 0 489 +17 482 0 481 494 480 115 114 305 0 376 -14 510 468 512 ?513 15 514 5
 515 -0 0 513 15 22 15 511 137 0 516 510 0 17 516 0 511 516 516 0 517 518 0 0 +1
7 517 0 519 517 517 0 516 518 0 0 -16 518 149 0 ?516 520 521 522 0 0 1 16 520 11
13 0 ?523 524 518 525 0 0 1 16 521 152 0 ?526 518 527 528 0 0 1 31 522 172 0 518
 529 528 0 +0 .005 0 0 0 1 1 0 0 .0025 30 529 432 0 527 530 522 0 +-.00427794573
080468 .00758827748208921 0 0 0 1 31 528 171 0 521 522 525 0 +0 .005 .003 0 0 1
 1 0 0 .0025 30 525 192 0 520 528 531 0 +.0125 -.008 .003 0 0 -1 30 531 222 0 52
4 525 532 0 +-.0105 -.01 .003 0 0 -1 16 524 1131 0 ?533 534 520 531 0 0 1 30 532
 227 0 534 531 244 0 -.0105 -.01 .003 0 0 -1 16 534 1593 0 ?146 242 524 532 0 0
 1 30 244 245 0 242 532 243 0 --.0125 -.008 .003 0 0 -1 16 242 1575 0 ?140 239 5
34 244 0 0 1 17 140 0 535 137 66 138 536 242 0 283 +15 535 80 0 246 537 0 17 137
 0 535 246 140 135 538 284 0 539 +17 66 0 535 140 246 64 540 403 0 536 +17 536 0
 541 63 283 64 140 242 0 542 -17 283 0 541 536 543 138 544 281 0 545 +15 541 279
 0 536 546 0 17 543 0 541 283 63 141 533 524 0 544 -17 544 0 547 548 545 141 283
 281 0 353 -17 545 0 547 544 549 138 356 354 0 538 -15 547 1246 0 548 550 0 17 5
49 0 547 545 548 168 167 264 0 356 -17 356 0 551 552 538 168 545 354 0 0 +17 538
 0 551 356 553 138 137 284 0 0 -15 551 1248 0 356 554 0 17 553 0 551 538 552 135
 350 348 0 555 -17 552 0 551 553 356 171 170 262 0 350 -17 350 0 556 557 555 171
 553 348 0 0 +17 555 0 556 350 558 135 288 286 0 0 -15 556 1252 0 350 559 0 17 5
58 0 556 555 557 132 344 342 0 560 -17 288 0 561 562 539 132 555 286 0 558 +15 5
61 846 0 562 563 0 17 562 0 561 69 288 73 134 238 0 0 -17 539 0 561 288 69 135 2
46 233 0 553 -17 69 0 561 539 562 67 564 401 0 246 +17 246 0 535 66 137 67 539 2
33 0 540 +17 540 0 565 566 464 67 66 403 0 458 -15 565 1711 0 464 446 0 17 566 0
 565 567 540 79 458 456 0 568 -17 464 0 565 540 567 64 569 462 0 0 +17 458 0 570
 564 568 67 566 456 0 0 +15 570 1715 0 458 445 0 17 564 0 570 571 458 73 69 401
 0 400 -17 568 0 570 458 571 79 78 393 0 0 -17 571 0 570 568 564 76 75 431 0 572
 -17 78 0 514 397 81 76 568 393 0 571 +15 514 1509 0 78 510 509 17 397 0 514 105
 78 97 572 395 0 0 +17 81 0 514 78 84 79 567 391 0 566 +17 84 0 514 81 87 82 573
 389 0 569 +17 567 0 565 464 566 82 81 391 0 0 -17 87 0 514 84 90 85 574 387 0 5
75 +17 573 0 576 470 569 85 84 389 0 0 -17 569 0 576 573 542 82 464 462 0 567 -1
5 576 1707 0 470 577 0 17 542 0 576 569 470 64 63 405 0 464 -17 470 0 576 542 57
3 61 575 468 0 0 +17 63 0 541 543 536 61 542 405 0 533 +17 533 0 578 60 143 61 5
43 524 0 579 +15 578 78 0 533 580 0 17 60 0 578 146 533 58 579 407 0 581 +17 143
 0 578 533 146 141 582 279 0 543 +17 579 0 583 575 475 61 60 407 0 470 -15 583 1
703 0 475 584 0 17 575 0 583 574 579 85 470 468 0 573 -17 475 0 583 579 574 58 5
85 362 0 0 +17 574 0 583 475 575 88 87 387 0 0 -17 585 0 586 587 588 88 475 362
 0 574 -15 586 1701 0 589 590 0 17 587 0 586 589 585 91 90 385 0 473 -17 588 0 5
86 585 589 58 57 409 0 475 -17 589 0 586 588 587 55 473 471 0 591 -17 57 0 592 5
93 581 55 588 409 0 523 +15 592 258 0 581 594 0 17 593 0 592 278 57 147 523 520
 0 595 -17 581 0 592 57 278 58 146 534 0 588 -17 523 0 596 54 149 55 593 520 0 5
89 +15 596 84 0 523 513 0 17 54 0 596 152 523 52 591 411 0 222 +17 149 0 596 523
 152 147 224 225 0 593 +17 152 0 596 149 54 150 222 239 0 216 +17 224 0 597 219
 341 150 149 225 0 215 -15 597 1258 0 341 328 0 17 219 0 597 598 224 156 215 220
 0 211 -17 341 0 597 224 598 147 599 339 0 0 +17 598 0 597 341 219 159 158 270 0
 0 -17 599 0 600 601 595 159 341 339 0 598 -15 600 1254 0 347 329 0 17 601 0 600
 347 599 162 161 268 0 0 -17 595 0 600 599 347 147 278 276 0 341 -17 347 0 600 5
95 601 144 602 345 0 0 +17 278 0 592 581 593 144 595 276 0 582 +17 582 0 603 602
 353 144 143 279 0 347 -15 603 1250 0 353 604 0 17 602 0 603 605 582 162 347 345
 0 601 -17 353 0 603 582 605 141 548 351 0 0 +17 605 0 603 353 602 165 164 266 0
 0 -17 548 0 547 549 544 165 353 351 0 605 -17 164 0 606 161 167 162 605 266 0 6
02 +15 606 1059 0 155 15 607 17 161 0 606 158 164 159 601 268 0 599 +17 167 0 60
6 164 170 165 549 264 0 548 +17 170 0 606 167 173 168 552 262 0 549 +17 173 0 60
6 170 179 171 557 260 0 552 +17 179 0 606 173 182 177 608 256 0 557 +17 557 0 55
6 558 350 177 173 260 0 344 -17 344 0 330 608 560 177 558 342 0 0 +15 330 1256 0
 344 324 0 17 608 0 330 609 344 180 179 256 0 338 -17 560 0 330 344 609 132 302
 300 0 0 -17 609 0 330 560 608 118 338 332 0 610 -17 302 0 611 612 134 118 560 3
00 0 609 +15 611 404 0 612 613 0 17 612 0 611 400 302 70 120 527 0 614 -17 134 0
 611 302 400 132 562 238 0 288 +17 400 0 611 134 612 73 614 398 0 562 +17 614 0
 440 99 75 70 400 398 0 615 -15 440 1719 0 75 436 0 17 99 0 440 572 614 97 615 4
23 0 616 +17 75 0 440 614 572 73 571 431 0 564 +17 615 0 617 618 616 70 99 423 0
 0 -15 617 1717 0 455 433 0 17 618 0 617 455 615 11 72 420 0 0 -17 616 0 617 615
 455 97 105 379 0 397 -17 455 0 617 616 618 103 619 449 0 0 +17 105 0 514 102 39
7 103 616 379 0 620 +17 102 0 514 96 105 100 620 377 0 621 +17 620 0 447 619 461
 103 102 377 0 455 -15 447 1713 0 461 441 0 17 619 0 447 31 620 11 455 449 0 618
 -17 461 0 447 620 31 100 229 459 0 0 +17 31 0 447 461 619 49 26 24 0 0 -17 229
 0 622 236 621 49 461 459 0 31 -15 622 1709 0 467 623 0 17 236 0 622 467 229 52
 51 237 0 0 -17 621 0 622 229 467 100 96 381 0 461 -17 467 0 622 621 236 94 624
 465 0 0 +17 96 0 514 93 102 94 621 381 0 625 +17 93 0 514 90 96 91 625 383 0 58
7 +17 625 0 626 624 473 94 93 383 0 467 -15 626 1705 0 473 627 0 17 624 0 626 59
1 625 52 467 465 0 236 -17 473 0 626 625 591 91 589 471 0 0 +17 591 0 626 473 62
4 55 54 411 0 0 -14 627 1704 628 ?577 584 626 5 629 +0 0 577 584 22 81 1 628 289
5 630 627 631 0 512 632 633 14 577 1706 632 ?623 627 576 5 634 +0 0 623 627 22 1
4 584 1702 635 ?627 590 583 5 636 +0 0 627 590 22 51 629 1774 0 627 634 636 0 +.
012 .01 5e-4 -867361737988404e-31 1 0 5e-4 -1 -867361737988404e-31 0 13 22 29 0
 0 0 0 0 0 9 15 14 15 477 637 ?510 0 606 5 638 +0 0 510 0 22 81 1 637 2898 630 1
5 639 0 635 640 641 50 255 638 2 0 15 642 515 0 +0 0 .003 0 0 1 1 0 0 51 642 168
 0 643 644 638 0 +0 .005 0 0 0 1 .0025 1 0 0 50 515 65 0 510 638 645 0 +0 0 0 0
 0 1 1 0 0 50 645 86 0 580 515 646 0 +-.0125 -.01 .003 0 1 0 0 0 1 14 580 79 640
 ?643 537 578 5 645 -0 0 643 537 22 50 646 87 0 537 645 647 0 +-.0125 .01 .003 1
 1734723475976805e-31 0 -1734723475976805e-31 1 0 14 537 81 648 ?580 513 535 5 6
46 -0 0 580 513 22 50 647 89 0 513 646 649 0 +.0125 .01 .003 -1 -867361737988404
e-31 0 867361737988404e-31 -1 0 14 513 85 650 ?537 510 596 5 647 -0 0 537 510 22
 51 649 269 0 594 647 651 0 +.0105 -.008 .003 0 0 -1 .002 -1 0 0 14 594 257 652
 ?546 643 592 5 649 +0 0 546 643 22 51 651 290 0 546 649 653 0 +-.0105 -.008 .00
3 0 0 -1 .002 -1 0 0 14 546 278 654 ?655 594 541 5 651 +0 0 655 594 22 51 653 83
6 0 235 651 316 0 +.0105 -.00463744044688399 .003 0 0 1 .002 1 0 0 14 235 824 65
6 ?563 498 221 5 653 +0 0 563 498 22 51 316 857 0 563 653 308 0 +-.0105 -.004637
44044688398 0 0 0 1 .002 1 0 0 14 563 845 657 ?550 235 561 5 316 +0 0 550 235 22
 81 1 657 2905 630 563 658 0 656 659 660 14 550 1245 659 ?554 563 547 5 661 +0 0
 554 563 22 81 1 659 2906 630 550 662 0 657 663 664 14 554 1247 663 ?604 550 551
 5 665 +0 0 604 550 22 54 661 1317 0 550 665 666 0 +-.0105 -.008 .0025 0 0 1 .00
15 5e-4 1 0 0 51 665 1318 0 554 667 661 0 +-.012 -208166817117217e-32 .0025 -173
4723475976805e-31 1 0 5e-4 -1 -1734723475976805e-31 0 54 666 1397 0 668 661 669
 0 +-.0085 -.006 .0025 0 0 1 .00175 5e-4 1 0 0 14 668 1370 670 ?590 671 672 5 66
6 +0 0 590 671 22 51 669 1396 0 671 666 673 0 +-.0085 -.00775 .0025 -1 0 0 5e-4
 0 0 1 14 671 1368 674 ?668 675 676 5 669 +0 0 668 675 22 51 673 1395 0 675 669
 434 0 +-.0085 -.00425 .0025 1 0 0 5e-4 0 0 -1 14 675 1366 677 ?671 321 678 5 67
3 +0 0 671 321 22 54 434 1394 0 321 673 425 0 +.0085 -.006 .0025 0 0 1 .00175 5e
-4 1 0 0 14 321 1364 679 ?675 205 680 5 434 +0 0 675 205 22 81 1 679 2911 630 32
1 681 0 677 682 683 15 680 1365 0 684 321 0 17 684 0 680 685 686 192 366 364 0 6
87 -17 685 0 680 688 684 186 194 249 0 368 -17 686 0 680 684 688 121 297 295 0 3
66 -17 366 0 676 689 687 121 684 364 0 0 +17 687 0 676 366 690 192 191 232 0 0 -
15 676 1369 0 366 671 0 17 690 0 676 687 689 189 360 358 0 0 -17 191 0 607 255 1
94 189 687 232 0 691 +15 607 1038 0 191 15 692 17 255 0 607 188 191 183 691 253
 0 0 +17 194 0 607 191 188 192 685 249 0 684 +17 691 0 672 360 185 189 255 253 0
 690 -15 672 1371 0 185 668 0 17 360 0 672 504 691 129 690 358 0 689 +17 185 0 6
72 691 504 183 693 361 0 694 +17 504 0 672 185 360 126 291 289 0 0 -17 693 0 678
 695 694 126 185 361 0 504 -17 694 0 678 693 368 183 188 251 0 255 -15 678 1367
 0 368 675 0 17 368 0 678 694 695 186 688 213 0 0 +17 188 0 607 194 255 186 694
 251 0 685 +17 695 0 678 368 693 123 294 292 0 0 -17 688 0 680 686 685 123 368 2
13 0 695 -17 294 0 696 503 125 126 695 292 0 693 +15 696 686 0 503 697 0 17 503
 0 696 41 294 46 128 698 0 0 -17 125 0 696 294 41 123 37 699 0 297 +17 41 0 696
 125 503 34 487 417 0 37 +17 37 0 35 33 297 34 125 699 0 38 -16 699 1641 0 ?125
 698 499 700 0 0 1 17 297 0 35 37 36 123 686 295 0 688 +15 35 690 0 37 701 0 17
 36 0 35 297 33 121 40 499 0 304 +16 499 1650 0 ?36 699 357 702 0 0 1 17 304 0 4
96 40 131 121 689 303 0 686 +17 689 0 676 690 366 129 304 303 0 291 -30 702 710
 0 499 700 505 0 +.0085 -.00725 0 0 0 1 30 700 711 0 699 703 702 0 +.0085 -.0047
5 0 0 0 1 30 505 709 0 357 702 530 0 +-.0085 -.00725 0 0 0 1 30 530 552 0 230 50
5 529 0 +.004277945730804685 .00758827748208921 0 0 0 1 16 230 1659 0 ?29 527 69
8 530 0 0 1 16 527 1557 0 ?120 521 230 529 0 0 1 16 698 1629 0 ?128 230 699 703
 0 0 1 17 128 0 500 291 416 126 503 698 0 294 +30 703 712 0 698 0 700 0 +-.0085
 -.00475 0 0 0 1 17 120 0 704 231 72 118 612 527 0 302 +15 704 400 0 32 655 0 17
 231 0 704 32 120 195 610 298 0 705 +17 72 0 704 120 32 70 618 420 0 612 +17 32
 0 704 72 231 11 29 230 0 619 -17 610 0 706 338 705 118 231 298 0 0 -17 705 0 70
6 610 707 195 176 212 0 200 -15 706 1260 0 338 315 0 17 707 0 706 705 338 174 18
2 258 0 208 -17 176 0 199 201 200 174 705 212 0 707 +17 338 0 706 707 610 180 60
9 332 0 0 +17 182 0 606 179 208 180 707 258 0 608 +17 208 0 606 182 155 174 201
 209 0 0 +17 155 0 606 208 158 153 211 272 0 201 +17 158 0 606 155 161 156 598 2
70 0 219 +17 211 0 210 215 202 156 155 272 0 0 -14 315 1259 682 ?218 328 706 5 3
08 +0 0 218 328 22 81 1 682 2912 630 315 708 0 679 709 710 14 328 1257 709 ?315
 324 597 5 325 +0 0 315 324 22 81 1 709 2913 630 328 711 0 682 712 713 80 255 1
 630 714 715 9000 1 1 1 1 1 1 1 1 0 FFFFTFTFFFFFFF1 81 1 711 2774 716 328 0 709
 717 708 718 81 1 712 2914 630 329 719 0 709 720 721 82 255 1 713 -422838153 14
 329 1253 712 ?324 559 600 5 331 +0 0 324 559 22 81 1 719 2772 716 329 0 712 722
 717 723 81 1 720 2915 630 559 722 0 712 724 725 82 1 721 -420675465 14 559 1251
 720 ?329 604 556 5 726 +0 0 329 604 22 81 1 722 2771 716 559 0 720 727 719 728
 81 1 724 2916 630 604 727 0 720 729 730 82 1 725 -419626889 14 604 1249 724 ?55
9 554 603 5 667 +0 0 559 554 22 81 1 727 2770 716 604 0 724 731 722 732 81 1 729
 2917 630 498 733 0 724 734 735 82 1 730 -418512777 14 498 691 729 ?235 701 496
 5 736 -0 0 235 701 22 81 1 733 2765 716 498 0 729 737 738 739 81 1 734 2918 630
 701 737 0 729 740 741 82 1 735 999817337 14 701 687 734 ?498 697 35 5 742 -0 0
 498 697 22 81 1 737 2764 716 701 0 734 743 733 744 81 1 740 2919 630 697 743 0
 734 745 746 82 1 741 999948409 14 697 683 740 ?701 502 696 5 747 -0 0 701 502 2
2 81 1 743 2763 716 697 0 740 748 737 749 81 1 745 2920 630 502 748 0 740 750 75
1 82 1 746 1000079481 14 502 679 745 ?697 227 500 5 752 -0 0 697 227 22 81 1 748
 2762 716 502 0 745 753 743 754 81 1 750 2921 630 227 753 0 745 755 756 82 1 751
 999686265 14 227 534 750 ?502 613 28 5 757 -0 0 502 613 22 81 1 753 2761 716 22
7 0 750 758 748 759 81 1 755 2922 630 613 758 0 750 760 761 82 1 756 999555193 1
4 613 401 755 ?227 655 611 5 762 -0 0 227 655 22 81 1 758 2760 716 613 0 755 763
 753 764 81 1 760 2923 630 655 763 0 755 765 766 82 1 761 999293049 14 655 397 7
60 ?613 546 704 5 644 +0 0 613 546 22 81 1 763 2759 716 655 0 760 767 758 768 81
 1 765 2924 630 643 769 0 760 770 771 82 1 766 999161977 14 643 155 765 ?594 580
 519 5 642 -0 0 594 580 22 81 1 769 2756 716 643 0 765 772 773 774 81 1 770 2925
 630 590 775 0 765 776 777 82 1 771 1156448362 14 590 1700 770 ?584 668 586 5 77
8 +0 0 584 668 22 81 1 775 2782 716 590 0 770 779 780 781 81 1 776 2926 630 623
 782 0 770 783 784 82 1 777 1667301497 14 623 1708 776 ?446 577 622 5 785 +0 0 4
46 577 22 81 1 782 2786 716 623 0 776 786 787 788 81 1 783 2927 630 446 787 0 77
6 789 790 82 1 784 1662845049 14 446 1710 783 ?441 623 565 5 448 +0 0 441 623 22
 81 1 787 2787 716 446 0 783 782 791 792 81 1 789 2928 630 445 793 0 783 794 795
 82 1 790 1661796473 14 445 1714 789 ?433 441 570 5 442 +0 0 433 441 22 81 1 793
 2789 716 445 0 789 791 796 797 81 1 794 2929 630 433 796 0 789 798 799 82 1 795
 1659633785 14 433 1716 794 ?436 445 617 5 425 +0 0 436 445 22 81 1 796 2790 716
 433 0 794 793 800 801 81 1 798 2930 630 17 802 0 794 803 804 82 1 799 165845413
7 14 17 1819 798 ?490 436 492 5 6 +0 0 490 436 22 81 1 802 2792 716 17 0 798 800
 805 806 81 1 803 2931 630 490 805 0 798 807 808 82 1 804 1672347769 14 490 1821
 803 ?495 17 486 5 18 +0 0 495 17 22 81 1 805 2793 716 490 0 803 802 809 810 81
 1 807 2932 630 495 809 0 803 811 812 82 1 808 1671233657 14 495 1823 807 ?507 4
90 481 5 813 +0 0 507 490 22 81 1 809 2794 716 495 0 807 805 814 815 81 1 811 29
33 630 507 814 0 807 0 816 82 1 812 1670054009 14 507 1825 811 ?0 495 506 5 817
 +0 0 0 495 22 81 1 814 2795 716 507 0 811 809 0 818 82 1 816 1668481145 80 1 71
6 0 819 8001 0 0 0 0 3 5 0 0 0 FFFFTFTFFFFFFF2 83 255 3 818 .968627450980392 .25
88235294117645 .2588235294117645 79 255 15 819 SDL/TYSA_COLOUR54 817 1852 0 507
 778 813 0 +-.0085 -.006 5e-4 0 0 1 .00175 5e-4 1 0 0 54 778 1772 0 590 636 817
 0 +.0105 -.008 5e-4 0 0 1 .0015 5e-4 1 0 0 51 813 1851 0 495 817 18 0 +0 -.0077
5 5e-4 1 0 0 5e-4 0 0 -1 51 18 1850 0 490 813 6 0 +0 -.00425 5e-4 -1 0 0 5e-4 0
 0 1 51 636 1773 0 584 629 778 0 +-.0125 -.0095 5e-4 1 0 0 5e-4 0 0 -1 83 3 815
 .968627450980392 .2588235294117645 .2588235294117645 83 3 810 .968627450980392
 .2588235294117645 .2588235294117645 81 1 800 2791 716 436 0 439 796 802 820 83
 3 806 .968627450980392 .2588235294117645 .2588235294117645 81 1 439 2892 630 43
6 800 0 327 444 821 83 3 820 .968627450980392 .2588235294117645 .258823529411764
5 81 1 327 2891 630 324 717 0 323 439 822 81 1 444 2893 630 441 791 0 439 512 82
3 82 1 821 1656750201 81 1 791 2788 716 441 0 444 787 793 824 81 1 512 2894 630
 510 825 0 444 628 826 82 1 823 1660682361 81 1 825 2752 716 510 0 512 639 827 8
28 82 1 826 998047865 81 1 639 2751 716 15 0 637 0 825 829 81 1 827 2753 716 513
 0 650 825 830 831 83 3 828 .968627450980392 .2588235294117645 .2588235294117645
 81 1 650 2901 630 513 827 0 648 652 832 81 1 830 2754 716 537 0 648 827 772 833
 83 3 831 .968627450980392 .2588235294117645 .2588235294117645 81 1 648 2900 630
 537 830 0 640 650 834 81 1 772 2755 716 580 0 640 830 769 835 83 3 833 .9686274
50980392 .2588235294117645 .2588235294117645 81 1 640 2899 630 580 772 0 637 648
 836 83 3 835 .968627450980392 .2588235294117645 .2588235294117645 82 1 836 9984
41081 82 1 834 998572153 81 1 652 2902 630 594 773 0 650 654 837 82 1 832 998703
225 81 1 773 2757 716 594 0 652 769 767 838 81 1 654 2903 630 546 767 0 652 656
 839 82 1 837 998834297 81 1 767 2758 716 546 0 654 773 763 840 81 1 656 2904 63
0 235 738 0 654 657 841 82 1 839 998965369 81 1 738 2766 716 235 0 656 733 658 8
42 82 1 841 997785721 81 1 658 2767 716 563 0 657 738 662 843 83 3 842 .96862745
0980392 .2588235294117645 .2588235294117645 81 1 662 2768 716 550 0 659 658 731
 844 83 3 843 .968627450980392 .2588235294117645 .2588235294117645 81 1 731 2769
 716 554 0 663 662 727 845 83 3 844 .968627450980392 .2588235294117645 .25882352
94117645 81 1 663 2907 630 554 731 0 659 670 846 83 3 845 .968627450980392 .2588
235294117645 .2588235294117645 81 1 670 2908 630 668 779 0 663 674 847 82 1 846
 -417398665 81 1 779 2781 716 668 0 670 848 775 849 81 1 674 2909 630 671 848 0
 670 677 850 82 1 847 -415104905 81 1 848 2780 716 671 0 674 851 779 852 81 1 67
7 2910 630 675 851 0 674 679 853 82 1 850 -413532041 81 1 851 2779 716 675 0 677
 681 848 854 82 1 853 -412352393 81 1 681 2778 716 321 0 679 855 851 856 83 3 85
4 .968627450980392 .2588235294117645 .2588235294117645 81 1 855 2777 716 205 0 3
20 857 681 858 83 3 856 .968627450980392 .2588235294117645 .2588235294117645 81
 1 320 2889 630 205 855 0 0 323 859 81 1 857 2776 716 218 0 323 708 855 860 83 3
 858 .968627450980392 .2588235294117645 .2588235294117645 81 1 323 2890 630 218
 857 0 320 327 861 81 1 708 2775 716 315 0 682 711 857 862 83 3 860 .96862745098
0392 .2588235294117645 .2588235294117645 83 3 862 .968627450980392 .258823529411
7645 .2588235294117645 82 1 861 -425131913 82 1 859 -426835849 83 3 852 .9686274
50980392 .2588235294117645 .2588235294117645 83 3 849 .968627450980392 .25882352
94117645 .2588235294117645 83 3 840 .968627450980392 .2588235294117645 .25882352
94117645 83 3 838 .968627450980392 .2588235294117645 .2588235294117645 83 3 829
 .968627450980392 .2588235294117645 .2588235294117645 83 3 824 .968627450980392
 .2588235294117645 .2588235294117645 81 1 717 2773 716 324 0 327 719 711 863 82
 1 822 -421789577 83 3 863 .968627450980392 .2588235294117645 .2588235294117645
 83 3 801 .968627450980392 .2588235294117645 .2588235294117645 83 3 797 .9686274
50980392 .2588235294117645 .2588235294117645 83 3 792 .968627450980392 .25882352
94117645 .2588235294117645 51 448 1777 0 446 442 785 0 +-.012 .01 5e-4 173472347
5976805e-31 -1 0 5e-4 1 1734723475976805e-31 0 54 785 1776 0 623 448 634 0 +.010
5 -.00463744044688399 5e-4 0 0 1 .0015 5e-4 1 0 0 54 634 1775 0 577 785 629 0 +-
.0105 -.008 5e-4 0 0 1 .0015 5e-4 1 0 0 81 1 786 2785 716 577 0 632 631 782 864
 83 3 788 .968627450980392 .2588235294117645 .2588235294117645 81 1 632 2896 630
 577 786 0 628 635 865 81 1 631 2784 716 627 0 628 780 786 866 83 3 864 .9686274
50980392 .2588235294117645 .2588235294117645 81 1 780 2783 716 584 0 635 775 631
 867 83 3 866 .968627450980392 .2588235294117645 .2588235294117645 81 1 635 2897
 630 584 780 0 632 637 868 83 3 867 .968627450980392 .2588235294117645 .25882352
94117645 82 1 868 1666187385 82 1 865 1663959161 83 3 781 .968627450980392 .2588
235294117645 .2588235294117645 83 3 774 .968627450980392 .2588235294117645 .2588
235294117645 15 519 158 0 517 643 869 15 869 159 0 526 643 0 17 526 0 869 526 52
6 0 870 521 0 0 +17 870 0 692 870 870 0 526 521 0 0 -15 692 144 0 870 15 0 83 3
 768 .968627450980392 .2588235294117645 .2588235294117645 51 644 423 0 655 762 6
42 0 +0 .005 0 0 0 1 .005 1 0 0 50 762 426 0 613 757 644 0 +-.00642667860599228
 .00455982352431715 0 .815569740120088 -.578658793245599 0 .578658793245599 .815
569740120088 0 50 757 547 0 227 752 762 0 +.00642667860599228 .00455982352431715
 0 -.815569740120088 -.578658793245599 0 .578658793245599 -.815569740120088 0 51
 752 703 0 502 736 757 0 +-.0085 -.006 0 0 0 1 .00125 1 0 0 50 736 704 0 498 742
 752 0 +-.0085 -.00725 0 0 -1 0 0 0 -1 51 742 705 0 701 747 736 0 +.0085 -.006 0
 0 0 1 .00125 1 0 0 50 747 706 0 697 0 742 0 +-.0085 -.00475 0 0 1 0 0 0 1 83 3
 764 .968627450980392 .2588235294117645 .2588235294117645 83 3 759 .968627450980
392 .2588235294117645 .2588235294117645 83 3 754 .968627450980392 .2588235294117
645 .2588235294117645 83 3 749 .968627450980392 .2588235294117645 .2588235294117
645 83 3 744 .968627450980392 .2588235294117645 .2588235294117645 83 3 739 .9686
27450980392 .2588235294117645 .2588235294117645 83 3 732 .968627450980392 .25882
35294117645 .2588235294117645 51 667 1319 0 604 726 665 0 +0 -.0095 .0025 -1 0 0
 5e-4 0 0 1 54 726 1320 0 559 331 667 0 +-.0105 -.00463744044688398 .0025 0 0 1
 .0015 5e-4 1 0 0 54 331 1321 0 329 325 726 0 +.0105 -.008 .0025 0 0 1 .0015 5e-
4 1 0 0 83 3 728 .968627450980392 .2588235294117645 .2588235294117645 83 3 723 .
968627450980392 .2588235294117645 .2588235294117645 83 3 718 .968627450980392 .2
588235294117645 .2588235294117645 79 14 715 SWEntUnchanged82 1 710 -424017801 82
 1 683 -411238281 82 1 664 -416284553 82 1 660 997654649 82 1 641 997916791 82 1
 633 1665073273 17 90 0 514 87 93 88 587 385 0 585 +17 572 0 440 75 99 76 397 39
5 0 0 -16 431 1749 0 ?75 449 423 424 0 0 1 16 220 1291 0 ?215 332 212 307 0 0 1
 17 222 0 221 51 216 52 152 239 0 624 -17 146 0 578 143 60 144 581 534 0 278 +14
1 435 422 871 871 425 141 871 432 435 435 425 141 317 306 872 872 308 141 872 31
4 317 317 308 19 16 95 0 1 0 9 5 S0 74 4 CI16 index_map_offset0 0 1 dCCZ20 14 3
 0 0 811 2 814 0 0 0 0 0 0 0 0 0 0 0 0 0 0 0 0 0 80 2 12 873 874 8004 0 0 0 0 3
 5 0 0 0 FFTFFFFFFFFFFF2 3 83 1 13 1 79 16 874 SDL/TYSA_DENSITY1 0 
