**ABCDEFGHIJKLMNOPQRSTUVWXYZabcdefghijklmnopqrstuvwxyz**************************
**PARASOLID !"#$%&'()*+,-./:;<=>?@[\]^_`{|}~0123456789**************************
**PART1;
MC=AMD64;
MC_MODEL=AMD64 Family 21 Model 2 Stepping 0, AuthenticAMD;
MC_ID=unknown;
OS=Windows_NT;
OS_RELEASE=unknown;
FRU=Parasolid Version 30.0, build 298, 12-15-2017;
APPL=SOLIDWORKS 2018-2018134;
SITE=;
USER=unknown;
FORMAT=text;
GUISE=transmit;
KEY=Valve Base;
FILE=Valve Base.x_t;
DATE=Sun Apr  5 13:01:40 2020;
**PART2;
SCH=SCH_3000298_30000;
USFLD_SIZE=0;
**PART3;
**END_OF_HEADER*****************************************************************
T51 : TRANSMIT FILE created by modeller version 300029823 SCH_3000298_30000_1300
6205 0 12 33 CCCCCCI4 mesh1006 0 I8 polyline1008 0 CCCCCCCDI5 owner1040 0 CCCCCC
I13 boundary_mesh1006 0 I17 boundary_polyline1008 0 CCCA16 index_map_offset0 0 1
 dA9 index_map82 0 A17 node_id_index_map82 0 A20 schema_embedding_map82 0 A5 chi
ld12 0 A14 lowest_node_id0 0 1 dZ1 676 2 3 0 0 0 0 0 0 1e3 1e-8 0 4 0 1 0 1 1 5
 6 7 0 0 0 8 9 0 0 0 0 0 0 0 81 255 2 2 408 10 1 0 0 0 0 11 0 70 11 CI9 list_typ
e0 0 1 uI10 notransmit0 0 1 lCCCDCCDI12 finger_index0 0 1 dI12 finger_block1012
 0 CZ3 0 4 T1 0 0 3 20 1 12 12 13 255 5 29 0 1 0 13 0 0 14 0 51 255 6 28 0 13 15
 0 0 -0 0 .0013 0 0 -1 .01775 -1 0 0 31 255 7 23 0 16 17 0 0 +0 0 0 0 0 1 1 0 0
 .01775 19 8 CCCCCCCA5 owner12 0 Z8 7 0 1 14 0 18 V0 16 255 9 53 0 ?19 0 20 21 0
 0 1 17 255 19 0 22 19 19 0 23 9 0 0 +16 20 4 0 ?24 9 16 17 0 0 1 31 21 81 0 9 2
5 17 0 +0 0 .0013 0 0 1 1 0 0 .01325 31 25 82 0 26 27 21 0 +0 0 .005 0 0 1 1 0 0
 .01325 31 17 5 0 20 21 7 0 +0 0 .0013 0 0 1 1 0 0 .01775 16 26 62 0 ?28 16 29 2
5 0 0 1 31 27 125 0 30 31 25 0 +0 0 0 0 0 -1 -1 0 0 .012 16 30 106 0 ?32 29 33 2
7 0 0 1 31 31 126 0 29 34 27 0 +0 0 .004 0 0 -1 -1 0 0 .012 16 29 103 0 ?35 26 3
0 31 0 0 1 31 34 167 0 36 37 31 0 +0 0 .005 0 0 1 1 0 0 .01225 16 36 148 0 ?38 3
3 39 34 0 0 1 31 37 168 0 33 40 34 0 +0 0 .0045 0 0 1 1 0 0 .01225 16 33 145 0 ?
41 30 36 37 0 0 1 31 40 320 0 42 43 37 0 +.0072499999999998 -206057393370429e-30
 .004 0 0 -1 -1 0 0 .00300000000000033 16 42 286 0 ?44 45 46 40 0 0 1 31 43 321
 0 45 47 40 0 +.0072499999999998 -206057393370429e-30 .0045 0 0 -1 -1 0 0 .00300
000000000033 16 45 283 0 ?48 49 42 43 0 0 1 31 47 322 0 49 50 43 0 +-41033904888
20945e-31 -.00725 .004 0 0 -1 -1 0 0 .00300000000000044 16 49 268 0 ?51 52 45 47
 0 0 1 31 50 323 0 52 53 47 0 +-4103390488820945e-31 -.00725 .0045 0 0 -1 -1 0 0
 .00300000000000044 16 52 265 0 ?54 55 49 50 0 0 1 31 53 324 0 55 56 50 0 +-.007
25000000000021 205169524441047e-30 .004 0 0 -1 -1 0 0 .00300000000000016 16 55 2
50 0 ?57 58 52 53 0 0 1 31 56 325 0 58 59 53 0 +-.00725000000000021 205169524441
047e-30 .0045 0 0 -1 -1 0 0 .00300000000000016 16 58 247 0 ?60 61 55 56 0 0 1 31
 59 326 0 61 62 56 0 +0 .00725 .004 0 0 -1 -1 0 0 .003 16 61 232 0 ?63 39 58 59
 0 0 1 31 62 327 0 39 64 59 0 +0 .00725 .0045 0 0 -1 -1 0 0 .003 16 39 229 0 ?65
 36 61 62 0 0 1 31 64 381 0 66 67 62 0 +0 0 .0045 0 0 1 1 0 0 .00115 16 66 359 0
 ?68 46 0 64 0 0 1 31 67 382 0 46 0 64 0 +0 0 .0105 0 0 1 1 0 0 .00115 16 46 362
 0 ?69 42 66 67 0 0 1 17 69 0 70 69 69 0 71 46 0 0 +15 255 70 372 0 69 72 0 17 7
1 0 73 71 71 0 69 46 0 0 -15 73 368 0 71 74 75 14 255 74 365 76 ?72 77 73 5 78 -
0 0 72 77 18 15 75 369 0 68 74 0 17 68 0 75 68 68 0 79 66 0 0 +17 79 0 80 79 79
 0 68 66 0 0 -15 80 353 0 79 81 82 14 81 156 83 ?84 85 80 5 86 +0 0 84 85 18 15
 82 200 0 65 81 87 17 65 0 82 65 65 0 88 39 0 0 +15 87 194 0 60 81 89 17 60 0 87
 60 60 0 90 58 0 0 +15 89 188 0 54 81 91 17 54 0 89 54 54 0 92 52 0 0 +15 91 182
 0 48 81 93 17 48 0 91 48 48 0 94 45 0 0 +15 93 158 0 41 81 0 17 41 0 93 41 41 0
 95 33 0 0 +17 95 0 96 95 95 0 41 33 0 0 -15 96 154 0 95 85 97 14 85 151 98 ?81
 99 96 5 100 -0 0 81 99 18 15 97 155 0 38 85 0 17 38 0 97 38 38 0 101 36 0 0 +17
 101 0 102 101 101 0 38 36 0 0 -15 102 140 0 101 103 104 14 103 70 105 ?106 107
 102 5 108 +0 0 106 107 18 15 104 72 0 28 103 0 17 28 0 104 28 28 0 109 26 0 0 +
17 109 0 110 109 109 0 28 26 0 0 -15 110 68 0 109 107 22 14 107 65 111 ?103 112
 110 5 113 -0 0 103 112 18 15 22 69 0 19 107 0 81 1 111 666 114 107 115 0 105 11
6 117 14 112 16 116 ?107 118 119 5 15 -0 0 107 118 18 51 113 78 0 107 108 120 0
 -0 0 .005 0 0 -1 .01325 -1 0 0 13 18 8 0 0 0 0 0 0 8 13 14 13 25 121 ?118 0 122
 5 6 -0 0 118 0 18 81 1 121 668 114 13 123 0 116 124 125 14 118 1 124 ?112 13 12
6 5 120 +0 0 112 13 18 15 122 24 0 127 13 128 17 127 0 122 127 127 0 24 20 0 0 -
15 128 26 0 129 13 0 17 129 0 128 129 129 0 130 16 0 0 +17 130 0 131 130 130 0 1
29 16 0 0 -16 16 18 0 ?129 20 26 7 0 0 1 15 131 17 0 130 112 0 17 24 0 132 24 24
 0 127 20 0 0 +15 132 3 0 24 118 0 81 1 124 669 114 118 133 0 121 134 135 15 126
 55 0 23 118 132 50 255 120 2 0 118 113 15 0 +0 0 .0013 0 0 1 1 0 0 50 15 22 0 1
12 120 6 0 +0 0 0 0 0 1 1 0 0 17 23 0 126 23 23 0 19 9 0 0 -80 255 1 114 136 137
 9000 1 1 1 1 1 1 1 1 0 FFFFTFTFFFFFFF1 81 1 133 616 138 118 0 124 123 139 140 8
1 1 134 670 114 106 141 0 124 142 143 82 255 1 135 1925251178 14 106 109 134 ?99
 103 144 5 145 -0 0 99 103 18 81 1 141 620 138 106 0 134 146 147 148 81 1 142 67
1 114 99 147 0 134 149 150 82 1 143 -749535123 14 99 114 142 ?85 106 151 5 152 +
0 0 85 106 18 81 1 147 621 138 99 0 142 141 153 154 81 1 149 672 114 84 155 0 14
2 156 157 82 1 150 -751501197 14 84 289 149 ?158 81 159 5 160 -0 0 158 81 18 81
 1 155 624 138 84 0 149 161 162 163 81 1 156 673 114 158 162 0 149 164 165 82 1
 157 379977843 14 158 271 156 ?166 84 167 5 168 -0 0 166 84 18 81 1 162 625 138
 158 0 156 155 169 170 81 1 164 674 114 166 169 0 156 171 172 82 1 165 376045683
 14 166 253 164 ?77 158 173 5 174 -0 0 77 158 18 81 1 169 626 138 166 0 164 162
 175 176 81 1 171 675 114 77 175 0 164 177 178 82 1 172 372113523 14 77 235 171
 ?74 166 179 5 180 -0 0 74 166 18 81 1 175 627 138 77 0 171 169 181 182 81 1 177
 676 114 72 183 0 171 0 184 82 1 178 368115827 14 72 370 177 ?0 74 70 5 185 +0 0
 0 74 18 81 1 183 629 138 72 0 177 181 0 186 82 1 184 1179770 80 1 138 0 187 800
1 0 0 0 0 3 5 0 0 0 FFFFTFTFFFFFFF2 81 1 181 628 138 74 0 76 175 183 188 83 255
 3 186 .1019607843137254 .1019607843137254 .1019607843137254 81 1 76 662 114 74
 181 0 0 83 189 83 3 188 .1019607843137254 .1019607843137254 .1019607843137254 8
1 1 83 663 114 81 161 0 76 98 190 82 1 189 3145850 81 1 161 623 138 81 0 83 153
 155 191 81 1 98 664 114 85 153 0 83 105 192 82 1 190 300613754 81 1 153 622 138
 85 0 98 147 161 193 81 1 105 665 114 103 146 0 98 111 194 82 1 192 302579824 81
 1 146 619 138 103 0 105 115 141 195 82 1 194 -1592197008 81 1 115 618 138 107 0
 111 139 146 196 83 3 195 .1019607843137254 .1019607843137254 .1019607843137254
 81 1 139 617 138 112 0 116 133 115 197 83 3 196 .1019607843137254 .101960784313
7254 .1019607843137254 81 1 116 667 114 112 139 0 111 121 198 83 3 197 .10196078
43137254 .1019607843137254 .1019607843137254 82 1 198 1926955117 83 3 193 .10196
07843137254 .1019607843137254 .1019607843137254 83 3 191 .1019607843137254 .1019
607843137254 .1019607843137254 79 255 15 187 SDL/TYSA_COLOUR50 185 380 0 72 0 78
 0 +0 0 .0105 0 0 1 1 0 0 51 78 378 0 74 185 180 0 -0 0 .0105 0 0 -1 .00115 -1 0
 0 51 180 317 0 77 78 174 0 +0 .00725 .0045 0 0 -1 .003 -1 0 0 51 174 314 0 166
 180 168 0 +-.00725000000000021 205169524441047e-30 .0045 0 0 -1 .00300000000000
016 -1 0 0 51 168 311 0 158 174 160 0 +-4103390488820945e-31 -.00725 .0045 0 0 -
1 .00300000000000044 -1 0 0 51 160 308 0 84 168 86 0 +.0072499999999998 -2060573
93370429e-30 .0045 0 0 -1 .00300000000000033 -1 0 0 50 86 166 0 81 160 100 0 +0
 0 .0045 0 0 1 1 0 0 51 100 164 0 85 86 152 0 +0 0 .0045 0 0 1 .01225 1 0 0 50 1
52 124 0 99 100 145 0 +0 0 .004 0 0 -1 -1 0 0 51 145 122 0 106 152 108 0 +0 0 .0
04 0 0 -1 .012 -1 0 0 50 108 80 0 103 145 113 0 +0 0 .005 0 0 1 1 0 0 83 3 182 .
1019607843137254 .1019607843137254 .1019607843137254 15 179 238 0 88 77 199 17 8
8 0 179 88 88 0 65 39 0 0 -15 199 239 0 63 77 0 17 63 0 199 63 63 0 200 61 0 0 +
17 200 0 151 200 200 0 63 61 0 0 -15 151 224 0 200 99 201 15 201 218 0 202 99 20
3 17 202 0 201 202 202 0 57 55 0 0 -15 203 212 0 204 99 205 17 204 0 203 204 204
 0 51 49 0 0 -15 205 206 0 206 99 207 17 206 0 205 206 206 0 44 42 0 0 -15 207 1
16 0 35 99 0 17 35 0 207 35 35 0 208 29 0 0 +17 208 0 144 208 208 0 35 29 0 0 -1
5 144 112 0 208 106 209 15 209 113 0 32 106 0 17 32 0 209 32 32 0 210 30 0 0 +17
 210 0 119 210 210 0 32 30 0 0 -15 119 97 0 210 112 131 17 44 0 211 44 44 0 206
 42 0 0 +15 211 293 0 44 84 0 17 51 0 212 51 51 0 204 49 0 0 +15 212 275 0 51 15
8 0 17 57 0 213 57 57 0 202 55 0 0 +15 213 257 0 57 166 0 83 3 176 .101960784313
7254 .1019607843137254 .1019607843137254 15 173 256 0 90 166 213 17 90 0 173 90
 90 0 60 58 0 0 -83 3 170 .1019607843137254 .1019607843137254 .1019607843137254
 15 167 274 0 92 158 212 17 92 0 167 92 92 0 54 52 0 0 -83 3 163 .10196078431372
54 .1019607843137254 .1019607843137254 15 159 292 0 94 84 211 17 94 0 159 94 94
 0 48 45 0 0 -83 3 154 .1019607843137254 .1019607843137254 .1019607843137254 83
 3 148 .1019607843137254 .1019607843137254 .1019607843137254 81 1 123 615 138 13
 0 121 0 133 214 83 3 140 .1019607843137254 .1019607843137254 .1019607843137254
 83 3 214 .1019607843137254 .1019607843137254 .1019607843137254 79 14 137 SWEntU
nchanged82 1 125 1927217255 82 1 117 -1590230934 19 14 30 0 1 0 8 5 S0 74 4 CI16
 index_map_offset0 0 1 dCCZ20 12 3 0 0 177 2 183 0 0 0 0 0 0 0 0 0 0 0 0 0 0 0 0
 0 80 2 10 215 216 8004 0 0 0 0 3 5 0 0 0 FFTFFFFFFFFFFF2 3 83 1 11 1 79 16 216
 SDL/TYSA_DENSITY1 0 
